<?xml version="1.0" standalone="no"?>
<!DOCTYPE svg PUBLIC "-//W3C//DTD SVG 20010904//EN"
 "http://www.w3.org/TR/2001/REC-SVG-20010904/DTD/svg10.dtd">
<svg version="1.0" xmlns="http://www.w3.org/2000/svg"
 width="512.000000pt" height="512.000000pt" viewBox="0 0 512.000000 512.000000"
 preserveAspectRatio="xMidYMid meet">
<metadata>
Created by potrace 1.11, written by Peter Selinger 2001-2013
</metadata>
<g transform="translate(0.000000,512.000000) scale(0.100000,-0.100000)"
fill="#000000" stroke="none">
<path d="M695 3648 c-341 -590 -619 -1079 -619 -1088 0 -9 278 -498 619 -1088
l619 -1072 1246 0 1246 0 619 1072 c341 590 619 1079 619 1088 0 9 -278 498
-619 1088 l-619 1072 -1246 0 -1246 0 -619 -1072z m1847 -47 c7 -6 -267 -171
-283 -171 -3 0 -72 38 -152 85 l-147 84 0 -173 0 -174 -137 -78 c-76 -44 -141
-81 -145 -82 -5 -2 -7 150 -6 338 l3 342 143 83 143 83 287 -166 c158 -90 290
-168 294 -171z m761 -439 l147 -85 -2 -865 -3 -864 -143 -83 -143 -83 -312
181 c-172 99 -438 253 -592 341 l-280 162 -3 171 -2 171 302 -175 c167 -96
435 -251 596 -344 l292 -168 0 693 0 692 -294 170 c-162 93 -291 172 -287 176
3 4 68 43 144 87 l138 79 147 -85 c81 -47 213 -124 295 -171z"/>
</g>
</svg>
