<?xml version="1.0" encoding="UTF-8" standalone="no"?>
<!-- Created with Inkscape (http://www.inkscape.org/) -->

<svg
   xmlns:dc="http://purl.org/dc/elements/1.1/"
   xmlns:cc="http://creativecommons.org/ns#"
   xmlns:rdf="http://www.w3.org/1999/02/22-rdf-syntax-ns#"
   xmlns:svg="http://www.w3.org/2000/svg"
   xmlns="http://www.w3.org/2000/svg"
   xmlns:sodipodi="http://sodipodi.sourceforge.net/DTD/sodipodi-0.dtd"
   xmlns:inkscape="http://www.inkscape.org/namespaces/inkscape"
   width="64"
   height="64"
   id="svg2"
   version="1.1"
   inkscape:version="0.91 r13725"
   sodipodi:docname="quantum-no-text-small-grayscale.svg"
   inkscape:export-filename="/home/caleb/Pictures/my-icon/quantum-no-text-small-grayscale.png"
   inkscape:export-xdpi="90"
   inkscape:export-ydpi="90">
  <defs
     id="defs4" />
  <sodipodi:namedview
     id="base"
     pagecolor="#ffffff"
     bordercolor="#666666"
     borderopacity="1.0"
     inkscape:pageopacity="0.0"
     inkscape:pageshadow="2"
     inkscape:zoom="5.6311201"
     inkscape:cx="4.8951168"
     inkscape:cy="35.769492"
     inkscape:document-units="px"
     inkscape:current-layer="g3913"
     showgrid="false"
     inkscape:window-width="1366"
     inkscape:window-height="664"
     inkscape:window-x="1280"
     inkscape:window-y="283"
     inkscape:window-maximized="1"
     fit-margin-top="10"
     fit-margin-left="10"
     fit-margin-right="10"
     fit-margin-bottom="10" />
  <metadata
     id="metadata7">
    <rdf:RDF>
      <cc:Work
         rdf:about="">
        <dc:format>image/svg+xml</dc:format>
        <dc:type
           rdf:resource="http://purl.org/dc/dcmitype/StillImage" />
        <dc:title />
      </cc:Work>
    </rdf:RDF>
  </metadata>
  <g
     inkscape:label="Layer 1"
     inkscape:groupmode="layer"
     id="layer1"
     transform="translate(-122.61517,-777.89221)">
    <g
       id="g3913"
       transform="matrix(1.1544419,0,0,1.1544419,-50.891754,-17.406892)">
      <path
         style="fill:#9e9e9e;fill-opacity:1;stroke:none"
         d="M 16.648438 5.4101562 L 1.296875 32 L 16.648438 58.589844 L 47.351562 58.589844 L 62.703125 32 L 47.351562 5.4101562 L 16.648438 5.4101562 z M 18.443359 8.5175781 L 45.556641 8.5175781 L 59.115234 32 L 45.556641 55.482422 L 18.443359 55.482422 L 4.8847656 32 L 18.443359 8.5175781 z "
         transform="matrix(0.86621943,0,0,0.86621943,150.29507,688.90353)"
         id="path3887" />
      <g
         transform="matrix(0.12336537,0,0,0.12336537,132.11634,651.71003)"
         id="g3880">
        <path
           style="fill:#9e9e9e;fill-opacity:1;stroke:none"
           d="m 320.35795,645.70943 129.35315,-74.67122 0.006,-149.38579 -25.98076,-15 -0.006,149.38579 -129.35295,74.67157 25.98076,14.99999 z"
           id="path3076"
           inkscape:connector-curvature="0" />
        <g
           transform="matrix(0,1,-1,0,568.16721,397.30373)"
           style="fill:#9e9e9e;fill-opacity:1"
           id="g3868">
          <path
             inkscape:connector-curvature="0"
             id="path3078"
             d="m 233.40373,118.45102 -149.358724,-0.009 -74.69809,129.36889 15,25.98076 74.69809,-129.36889 149.358724,0.009 -15,-25.98076 z"
             style="fill:#9e9e9e;fill-opacity:1;stroke:none" />
          <path
             style="fill:#9e9e9e;fill-opacity:1;stroke:none"
             d="m 24.350986,273.78892 149.358724,0.009 74.69809,-129.36889 -14.99999,-25.98076 -74.6981,129.36889 -149.358724,-0.009 15,25.98076 z"
             id="path3080"
             inkscape:connector-curvature="0" />
        </g>
        <path
           inkscape:connector-curvature="0"
           id="path3071"
           d="m 423.73644,406.65259 -129.35315,74.67122 -0.006,149.38579 25.98076,15 0.006,-149.38579 129.35315,-74.67122 -25.98076,-15 z"
           style="fill:#9e9e9e;fill-opacity:1;stroke:none" />
      </g>
    </g>
  </g>
</svg>
